<?xml version="1.0" encoding="utf-8"?>
<!-- Generator: Adobe Illustrator 22.0.0, SVG Export Plug-In . SVG Version: 6.00 Build 0)  -->
<svg version="1.1" id="Шар_1" xmlns="http://www.w3.org/2000/svg" xmlns:xlink="http://www.w3.org/1999/xlink" x="0px" y="0px"
	 viewBox="0 0 268 260.8" style="enable-background:new 0 0 268 260.8;" xml:space="preserve">
<style type="text/css">
	.st0{fill:#00032B;stroke:#FFFFFF;stroke-width:6;stroke-miterlimit:10;}
	.st1{fill:#00A6A0;}
	.st2{fill:#FF717B;}
	.st3{fill:#ECB05B;}
	.st4{fill:#ACBF00;}
</style>
<circle class="st0" cx="134" cy="130.4" r="93.4"/>
<g>
	<path class="st1" d="M99.3,114.3c-2.6,0-5.3-0.5-7.9-1.4c-2.7-1-5-2.3-7-3.9l2.7-3.8c4.1,3.1,8.3,4.6,12.5,4.6c2.2,0,4-0.5,5.4-1.6
		c1.4-1.1,2.1-2.5,2.1-4.3c0-1.6-0.8-2.9-2.3-3.8c-1.5-0.9-3.8-1.7-6.8-2.6c-1.8-0.5-3.3-1-4.3-1.4c-1.1-0.4-2.3-1-3.6-1.8
		c-1.4-0.8-2.4-1.8-3-2.9c-0.7-1.2-1-2.6-1-4.2c0-3.1,1.2-5.6,3.5-7.5c2.3-1.9,5.3-2.9,8.9-2.9c4.7,0,9,1.3,13,4l-2.4,4.1
		c-3.6-2.3-7.2-3.5-10.7-3.5c-2.1,0-3.8,0.5-5.1,1.5c-1.3,1-1.9,2.3-1.9,3.9c0,0.7,0.2,1.3,0.6,1.8c0.4,0.6,0.8,1,1.3,1.4
		c0.5,0.4,1.2,0.8,2.2,1.2c1,0.4,1.8,0.7,2.4,0.9c0.6,0.2,1.6,0.5,2.9,0.9c1.7,0.5,3.1,1,4.3,1.5c1.1,0.5,2.3,1.1,3.6,1.9
		c1.3,0.8,2.2,1.8,2.8,3s0.9,2.6,0.9,4.2c0,3.4-1.2,6-3.6,7.9C106.2,113.3,103.1,114.3,99.3,114.3z"/>
	<path class="st2" d="M154.5,97.7c0.4,3.7,1.8,6.6,4.2,8.8c2.4,2.2,5.3,3.3,8.6,3.3c4.3,0,8.1-1.7,11.4-5.1l3.4,3
		c-4.1,4.5-9,6.8-14.9,6.8c-5.1,0-9.4-1.8-12.8-5.3c-3.5-3.5-5.2-8.1-5.2-13.6c0-5.3,1.7-9.7,5-13.4c3.3-3.7,7.4-5.5,12.4-5.5
		c5.2,0,9.3,1.8,12.3,5.5c3,3.6,4.5,8.2,4.5,13.7c0,0.7,0,1.3-0.1,1.9H154.5z M154.5,93.3h23.3c-0.3-3.5-1.5-6.4-3.5-8.7
		c-2-2.3-4.7-3.5-8.1-3.5c-3.1,0-5.7,1.1-7.9,3.4C156.1,86.9,154.9,89.8,154.5,93.3z"/>
	<path class="st3" d="M87.4,178.6v-36.2h5.4v6.3c2.8-4.7,7-7.1,12.4-7.1c4.3,0,7.7,1.3,10.1,4c2.5,2.6,3.7,6.1,3.7,10.5v22.5h-5.4
		v-21.1c0-3.4-0.9-6.1-2.6-8c-1.8-1.9-4.2-2.9-7.4-2.9c-3.1,0-5.7,1-7.8,3.1c-2.1,2.1-3.1,4.8-3.1,8.2v20.7H87.4z"/>
	<path class="st4" d="M163,179.3c-3.7,0-6.9-1-9.5-3c-2.7-2-4-4.8-4-8.4c0-3.8,1.4-6.7,4.2-8.7c2.8-2.1,6.6-3.1,11.3-3.1
		c3.7,0,7.4,0.5,11.1,1.5v-1.1c0-3.2-0.9-5.6-2.8-7.3c-1.9-1.7-4.5-2.5-7.9-2.5c-3.5,0-7.2,0.9-11,2.6l-1.6-4.4
		c4.5-2.1,8.9-3.1,13.2-3.1c5.1,0,9,1.3,11.7,4c2.5,2.5,3.8,6.1,3.8,10.6v22.1H176v-5.4C172.8,177.3,168.4,179.3,163,179.3z
		 M164,175c3.4,0,6.2-0.9,8.5-2.7c2.3-1.8,3.5-4.2,3.5-7v-3.4c-3.5-1-7.1-1.5-10.6-1.5c-3.3,0-5.9,0.7-7.8,2
		c-1.9,1.3-2.8,3.1-2.8,5.4c0,2.2,0.9,3.9,2.6,5.2C159.3,174.3,161.4,175,164,175z"/>
</g>
</svg>
